<svg xmlns="http://www.w3.org/2000/svg" version="1.1" xmlns:xlink="http://www.w3.org/1999/xlink" xmlns:svgjs="http://svgjs.dev/svgjs" width="1000" height="1000" viewBox="0 0 1000 1000"><rect width="1000" height="1000" fill="#0080ff"></rect><g transform="matrix(0.7,0,0,0.7,149.57575757575756,282.1265587044535)"><svg viewBox="0 0 396 247" data-background-color="#0080ff" preserveAspectRatio="xMidYMid meet" height="623" width="1000" xmlns="http://www.w3.org/2000/svg" xmlns:xlink="http://www.w3.org/1999/xlink"><defs></defs><g id="tight-bounds" transform="matrix(1,0,0,1,0.2400000000000091,-0.09999999999999432)"><svg viewBox="0 0 395.52 247.2" height="247.2" width="395.52"><g><svg></svg></g><g><svg viewBox="0 0 395.52 247.2" height="247.2" width="395.52"><g transform="matrix(1,0,0,1,75.54432,87.69134342818732)"><svg viewBox="0 0 244.43135999999998 71.81731314362534" height="71.81731314362534" width="244.43135999999998"><g><svg viewBox="0 0 244.43135999999998 71.81731314362534" height="71.81731314362534" width="244.43135999999998"><g><svg viewBox="0 0 244.43135999999998 71.81731314362534" height="71.81731314362534" width="244.43135999999998"><g><svg viewBox="0 0 244.43135999999998 71.81731314362534" height="71.81731314362534" width="244.43135999999998"><g><svg viewBox="0 0 244.43135999999998 71.81731314362534" height="71.81731314362534" width="244.43135999999998"><g><svg viewBox="0 0 244.43135999999998 42.4472413245033" height="42.4472413245033" width="244.43135999999998"><g transform="matrix(1,0,0,1,0,0)"><svg width="244.43135999999998" viewBox="2 -35 203.83 35.4" height="42.4472413245033" data-palette-color="#ffffff"><path d="M17.65-32.3L17.65-32.3Q12-32.3 8.7-28.1 5.4-23.9 5.4-16L5.4-16Q5.4-12.6 6.1-10.05 6.8-7.5 7.83-6.1 8.85-4.7 10.35-3.9L10.35-3.9Q12.75-2.55 15.95-2.55L15.95-2.55Q20.9-2.55 25.85-3.65L25.85-3.65 26.45-1.05Q25.6-0.75 21.93-0.28 18.25 0.2 15.95 0.2 13.65 0.2 11.95-0.13 10.25-0.45 8.35-1.5 6.45-2.55 5.13-4.28 3.8-6 2.9-9 2-12 2-16L2-16Q2-24.85 6.05-29.8L6.05-29.8Q10.3-35 17.65-35L17.65-35Q19.9-35 22.53-34.58 25.15-34.15 26.25-33.75L26.25-33.75 26.85-26.55 24.4-26.2 23.7-31.6Q20.5-32.3 17.65-32.3ZM36.85 0.2L36.85 0.2Q30.2 0.2 29.8-5.05L29.8-5.05Q29.75-5.4 29.75-5.75L29.75-5.75Q29.75-9.95 34.8-11.35L34.8-11.35Q37.6-12.05 45.6-12.95L45.6-12.95 45.6-16.8Q45.6-22.25 39.9-22.25L39.9-22.25Q35.8-22.2 31.2-20.35L31.2-20.35 30.35-22.5 30.85-22.7Q34.75-24.4 36.8-24.75 38.85-25.1 39.8-25.13 40.75-25.15 41.62-25.1 42.5-25.05 43.9-24.65 45.3-24.25 46.32-23.53 47.35-22.8 48.1-21.35 48.85-19.9 48.85-17.9L48.85-17.9 48.85-2.5 52.7-2.5 52.7 0 46.1 0 45.6-1.9Q41.1 0.2 36.85 0.2ZM37.75-2.1L37.75-2.1Q41.55-2.1 45.6-3.8L45.6-3.8 45.6-10.95Q38.1-10.7 35.9-9.95L35.9-9.95Q34.2-9.5 33.5-8.33 32.8-7.15 32.8-6.45 32.8-5.75 32.8-5.5L32.8-5.5Q32.95-3.7 34.35-2.9 35.75-2.1 37.75-2.1ZM64.1-2.45L64.1-2.45 66.05-2.55 66.2-0.55Q66.15-0.55 65.5-0.4L65.5-0.4Q64-0.05 62.15-0.05L62.15-0.05Q60.45-0.15 59.05-0.63 57.65-1.1 56.45-2.63 55.25-4.15 55.25-6.55L55.25-6.55 55.25-22.1 52.7-22.1 53.1-24.5 55.3-24.95 55.7-29.75 58.5-30 58.5-25 64.55-25 64.55-22.1 58.5-22.1 58.5-7.4Q58.5-2.45 64.1-2.45ZM80.09-2.45L80.09-2.45 82.04-2.55 82.19-0.55Q82.14-0.55 81.49-0.4L81.49-0.4Q79.99-0.05 78.14-0.05L78.14-0.05Q76.44-0.15 75.04-0.63 73.64-1.1 72.44-2.63 71.24-4.15 71.24-6.55L71.24-6.55 71.24-22.1 68.69-22.1 69.09-24.5 71.29-24.95 71.69-29.75 74.49-30 74.49-25 80.54-25 80.54-22.1 74.49-22.1 74.49-7.4Q74.49-2.45 80.09-2.45ZM105.59 0L105.09-2.9Q100.54 0.15 96.49 0.15L96.49 0.15Q94.79 0.15 92.49-0.7L92.49-0.7Q90.99-1.25 90.09-2.78 89.19-4.3 89.19-6.6L89.19-6.6 89.19-22.5 85.69-22.5 85.69-25 92.44-25 92.44-7.6Q92.44-5.85 93.19-4.73 93.94-3.6 95.09-3.25L95.09-3.25Q96.99-2.65 98.14-2.75L98.14-2.75Q101.14-2.8 105.09-4.9L105.09-4.9 105.09-22.5 101.59-22.5 101.59-25 108.34-25 108.34-2.5 112.19-2.5 112.19 0 105.59 0ZM118.29-8.05L118.54-3.25Q120.64-2.6 121.91-2.6 123.19-2.6 123.59-2.65L123.59-2.65Q126.19-2.7 127.94-3.75 129.69-4.8 129.69-6.7 129.69-8.6 128.31-9.65 126.94-10.7 124.99-11.25 123.04-11.8 121.09-12.45 119.14-13.1 117.76-14.5 116.39-15.9 116.39-18.15L116.39-18.15Q116.39-21.35 118.84-23.28 121.29-25.2 125.04-25.2L125.04-25.2Q127.84-25.2 130.69-24.2L130.69-24.2 131.59-23.85 131.59-18.1 129.14-17.75 128.94-22Q126.94-22.3 125.59-22.3L125.59-22.3Q122.84-22.3 121.24-21.23 119.64-20.15 119.64-18.48 119.64-16.8 121.01-15.85 122.39-14.9 124.34-14.35 126.29-13.8 128.24-13.13 130.19-12.45 131.56-10.93 132.94-9.4 132.94-6.95L132.94-6.95Q132.94-3.65 130.46-1.73 127.99 0.2 123.44 0.2 118.89 0.2 115.89-1.95L115.89-1.95 115.89-7.7 118.29-8.05ZM136.64-1.45L136.64-1.45Q136.64-2.4 137.11-2.95 137.59-3.5 138.39-3.5L138.39-3.5Q140.14-3.5 140.14-1.45L140.14-1.45Q140.14-0.6 139.64-0.1 139.14 0.4 138.39 0.4L138.39 0.4Q136.64 0.4 136.64-1.45ZM147.88-32.25L144.58-32.25 144.58-35 154.68-35 154.68-32.25 151.28-32.25 151.28-2.75 154.68-2.75 154.68 0 144.58 0 144.58-2.75 147.88-2.75 147.88-32.25ZM161.03-22.5L157.68-22.5 157.68-25 164.28-25 164.28-22.2Q168.38-25 172.13-25.15L172.13-25.15Q175.78-25.15 177.68-23.7L177.68-23.7Q178.53-23.05 179.21-21.68 179.88-20.3 179.88-18.4L179.88-18.4 179.88-2.5 183.73-2.5 183.73 0 173.63 0 173.63-2.5 176.63-2.5 176.63-17.15Q176.63-22 170.93-22L170.93-22Q167.83-21.9 164.28-19.95L164.28-19.95 164.28-2.5 168.03-2.5 168.03 0 157.93 0 157.93-2.5 161.03-2.5 161.03-22.5ZM198.68-22.3L198.68-22.3Q194.43-22.3 191.8-19.48 189.18-16.65 189.18-11.55L189.18-11.55Q189.18-2.7 197.43-2.7L197.43-2.7Q200.63-2.7 202.78-3.23 204.93-3.75 205.13-3.9L205.13-3.9 205.83-1.55Q204.68-0.8 202.03-0.3 199.38 0.2 197.23 0.2 195.08 0.2 193.33-0.25 191.58-0.7 189.8-1.85 188.03-3 186.98-5.48 185.93-7.95 185.93-11.5L185.93-11.5Q185.93-18.05 189.28-21.4L189.28-21.4Q193.03-25.25 198.73-25.25L198.73-25.25Q200.53-25.25 202.55-24.78 204.58-24.3 205.68-23.3L205.68-23.3 205.68-16.75 203.23-16.4 202.98-21.65Q200.93-22.3 198.68-22.3Z" opacity="1" transform="matrix(1,0,0,1,0,0)" fill="#ffffff" class="undefined-text-0" data-fill-palette-color="primary" id="text-0"></path></svg></g></svg></g><g transform="matrix(1,0,0,1,0,52.46801626742675)"><svg viewBox="0 0 244.43135999999998 19.349296876198594" height="19.349296876198594" width="244.43135999999998"><g transform="matrix(1,0,0,1,0,0)"><svg width="244.43135999999998" viewBox="3.95 -36.5 469.26 37.15" height="19.349296876198594" data-palette-color="#ffffff"><path d="M7.55 0L3.95 0 3.95-35 19.15-35Q22.35-35 25-33.6 27.65-32.2 29.23-29.7 30.8-27.2 30.8-23.9L30.8-23.9Q30.8-20.35 28.95-17.7 27.1-15.05 24-13.8L24-13.8 27.95-5.25Q28.45-4.2 29.05-3.73 29.65-3.25 30.7-3.25L30.7-3.25 32.8-3.25 32.8 0 30.2 0Q28.3 0 26.95-0.95 25.6-1.9 24.7-3.65L24.7-3.65 20.4-12.95Q19.8-12.9 19.18-12.85 18.55-12.8 17.95-12.8L17.95-12.8 7.55-12.8 7.55 0ZM7.55-31.8L7.55-16 18.55-16Q20.95-16 22.9-16.93 24.85-17.85 26.03-19.63 27.2-21.4 27.2-23.9L27.2-23.9Q27.2-26.35 26.03-28.15 24.85-29.95 22.93-30.88 21-31.8 18.7-31.8L18.7-31.8 7.55-31.8ZM55.8 0L49.55 0Q45.45 0 42.22-1.53 39-3.05 37.12-5.9 35.25-8.75 35.25-12.75L35.25-12.75Q35.25-16.45 36.75-19.48 38.25-22.5 40.97-24.3 43.7-26.1 47.35-26.1L47.35-26.1Q51.1-26.1 53.7-24.45 56.3-22.8 57.65-20 59-17.2 59-13.7L59-13.7Q59-13.2 58.95-12.6 58.9-12 58.8-11.55L58.8-11.55 38.95-11.55Q39.1-8.75 40.55-6.85 42-4.95 44.32-4 46.65-3.05 49.35-3.05L49.35-3.05 55.8-3.05 55.8 0ZM38.95-14.05L38.95-14.05 55.45-14.05Q55.45-15.05 55.25-16.28 55.05-17.5 54.52-18.7 54-19.9 53.07-20.9 52.15-21.9 50.72-22.53 49.3-23.15 47.25-23.15L47.25-23.15Q45.35-23.15 43.8-22.35 42.25-21.55 41.2-20.23 40.15-18.9 39.57-17.3 39-15.7 38.95-14.05ZM76.15 0.65L76.15 0.65Q72.3 0.65 69.55-1.15 66.8-2.95 65.35-5.98 63.9-9 63.9-12.75L63.9-12.75Q63.9-16.55 65.5-19.58 67.1-22.6 70.07-24.35 73.05-26.1 77.15-26.1L77.15-26.1Q81.1-26.1 83.97-24.35 86.85-22.6 88.42-19.65 90-16.7 90-13L90-13 90 0 86.55 0 86.55-5.7 86.4-5.7Q85.7-4.2 84.3-2.73 82.9-1.25 80.87-0.3 78.85 0.65 76.15 0.65ZM76.9-2.35L76.9-2.35Q79.7-2.35 81.85-3.73 84-5.1 85.25-7.48 86.5-9.85 86.45-12.85L86.45-12.85Q86.45-15.8 85.3-18.1 84.15-20.4 82.05-21.75 79.95-23.1 77.05-23.1L77.05-23.1Q74.05-23.1 71.9-21.73 69.75-20.35 68.6-17.98 67.45-15.6 67.45-12.6L67.45-12.6Q67.45-9.8 68.55-7.45 69.65-5.1 71.77-3.73 73.9-2.35 76.9-2.35ZM101.19 0L97.69 0 97.69-36.5 101.19-36.5 101.19 0ZM145.59 0.6L145.59 0.6Q143.04 0.6 140.99-0.58 138.94-1.75 137.76-3.88 136.59-6 136.59-8.75L136.59-8.75 136.59-26.8Q136.59-28.4 135.84-29.68 135.09-30.95 133.86-31.68 132.64-32.4 131.14-32.4L131.14-32.4Q129.64-32.4 128.39-31.68 127.14-30.95 126.39-29.68 125.64-28.4 125.64-26.8L125.64-26.8 125.64 0 122.04 0 122.04-26.25Q122.04-29 123.19-31.1 124.34-33.2 126.39-34.43 128.44-35.65 131.14-35.65L131.14-35.65Q133.79-35.65 135.84-34.43 137.89-33.2 139.06-31.1 140.24-29 140.24-26.25L140.24-26.25 140.24-8.2Q140.24-6.6 140.99-5.33 141.74-4.05 142.94-3.33 144.14-2.6 145.59-2.6L145.59-2.6Q147.04-2.6 148.24-3.33 149.44-4.05 150.16-5.33 150.89-6.6 150.89-8.2L150.89-8.2 150.89-26.25Q150.89-29 152.04-31.1 153.19-33.2 155.26-34.43 157.34-35.65 159.99-35.65L159.99-35.65Q162.69-35.65 164.71-34.43 166.74-33.2 167.89-31.1 169.04-29 169.04-26.25L169.04-26.25 169.04 0 165.44 0 165.44-26.8Q165.44-28.4 164.71-29.68 163.99-30.95 162.76-31.68 161.54-32.4 159.99-32.4L159.99-32.4Q158.49-32.4 157.21-31.68 155.94-30.95 155.21-29.68 154.49-28.4 154.49-26.8L154.49-26.8 154.49-8.75Q154.49-6 153.34-3.88 152.19-1.75 150.19-0.58 148.19 0.6 145.59 0.6ZM187.54 0.65L187.54 0.65Q183.69 0.65 180.94-1.15 178.19-2.95 176.74-5.98 175.29-9 175.29-12.75L175.29-12.75Q175.29-16.55 176.89-19.58 178.49-22.6 181.46-24.35 184.44-26.1 188.54-26.1L188.54-26.1Q192.49-26.1 195.36-24.35 198.24-22.6 199.81-19.65 201.39-16.7 201.39-13L201.39-13 201.39 0 197.94 0 197.94-5.7 197.79-5.7Q197.09-4.2 195.69-2.73 194.29-1.25 192.26-0.3 190.24 0.65 187.54 0.65ZM188.29-2.35L188.29-2.35Q191.09-2.35 193.24-3.73 195.39-5.1 196.64-7.48 197.89-9.85 197.84-12.85L197.84-12.85Q197.84-15.8 196.69-18.1 195.54-20.4 193.44-21.75 191.34-23.1 188.44-23.1L188.44-23.1Q185.44-23.1 183.29-21.73 181.14-20.35 179.99-17.98 178.84-15.6 178.84-12.6L178.84-12.6Q178.84-9.8 179.94-7.45 181.04-5.1 183.16-3.73 185.29-2.35 188.29-2.35ZM212.48 0L208.98 0 208.98-18.25Q208.98-21.65 210.91-23.58 212.83-25.5 216.23-25.5L216.23-25.5 220.63-25.5 220.63-22.45 216.93-22.45Q214.73-22.45 213.61-21.25 212.48-20.05 212.48-17.85L212.48-17.85 212.48 0ZM228.63 0L225.13 0 225.13-36.5 228.63-36.5 228.63-14.35 237.08-14.35 244.03-25.5 247.98-25.5 240.58-13.85Q244.38-12.9 246.48-10 248.58-7.1 248.58-3.1L248.58-3.1 248.58 0 245.13 0 245.13-3.1Q245.13-5.45 244.08-7.3 243.03-9.15 241.21-10.23 239.38-11.3 236.93-11.3L236.93-11.3 228.63-11.3 228.63 0ZM274.88 0L268.63 0Q264.53 0 261.3-1.53 258.08-3.05 256.2-5.9 254.33-8.75 254.33-12.75L254.33-12.75Q254.33-16.45 255.83-19.48 257.33-22.5 260.05-24.3 262.78-26.1 266.43-26.1L266.43-26.1Q270.18-26.1 272.78-24.45 275.38-22.8 276.73-20 278.08-17.2 278.08-13.7L278.08-13.7Q278.08-13.2 278.03-12.6 277.98-12 277.88-11.55L277.88-11.55 258.03-11.55Q258.18-8.75 259.63-6.85 261.08-4.95 263.4-4 265.73-3.05 268.43-3.05L268.43-3.05 274.88-3.05 274.88 0ZM258.03-14.05L258.03-14.05 274.53-14.05Q274.53-15.05 274.33-16.28 274.13-17.5 273.6-18.7 273.08-19.9 272.15-20.9 271.23-21.9 269.8-22.53 268.38-23.15 266.33-23.15L266.33-23.15Q264.43-23.15 262.88-22.35 261.33-21.55 260.28-20.23 259.23-18.9 258.65-17.3 258.08-15.7 258.03-14.05ZM298.58 0L292.98 0Q289.58 0 287.65-1.95 285.73-3.9 285.73-7.25L285.73-7.25 285.73-31.9 289.23-31.9 289.23-7.65Q289.23-5.45 290.35-4.25 291.48-3.05 293.68-3.05L293.68-3.05 298.58-3.05 298.58 0ZM298.68-22.45L281.28-22.45 281.28-25.5 298.68-25.5 298.68-22.45ZM329.47 0.65L329.47 0.65Q327.92 0.65 326.8-0.25 325.67-1.15 324.92-3.05L324.92-3.05 312.92-35 316.87-35 327.87-4.5Q328.17-3.7 328.5-3.23 328.82-2.75 329.47-2.75L329.47-2.75Q330.07-2.75 330.42-3.23 330.77-3.7 331.07-4.5L331.07-4.5 342.27-35 346.07-35 334.02-3.05Q333.32-1.15 332.17-0.25 331.02 0.65 329.47 0.65ZM360.97 0.65L360.97 0.65Q357.12 0.65 354.37-1.15 351.62-2.95 350.17-5.98 348.72-9 348.72-12.75L348.72-12.75Q348.72-16.55 350.32-19.58 351.92-22.6 354.89-24.35 357.87-26.1 361.97-26.1L361.97-26.1Q365.92-26.1 368.79-24.35 371.67-22.6 373.24-19.65 374.82-16.7 374.82-13L374.82-13 374.82 0 371.37 0 371.37-5.7 371.22-5.7Q370.52-4.2 369.12-2.73 367.72-1.25 365.69-0.3 363.67 0.65 360.97 0.65ZM361.72-2.35L361.72-2.35Q364.52-2.35 366.67-3.73 368.82-5.1 370.07-7.48 371.32-9.85 371.27-12.85L371.27-12.85Q371.27-15.8 370.12-18.1 368.97-20.4 366.87-21.75 364.77-23.1 361.87-23.1L361.87-23.1Q358.87-23.1 356.72-21.73 354.57-20.35 353.42-17.98 352.27-15.6 352.27-12.6L352.27-12.6Q352.27-9.8 353.37-7.45 354.47-5.1 356.59-3.73 358.72-2.35 361.72-2.35ZM386.02 0L382.52 0 382.52-36.5 386.02-36.5 386.02 0ZM405.36 0.65L405.36 0.65Q402.16 0.65 399.51-0.73 396.86-2.1 395.29-4.65 393.71-7.2 393.71-10.65L393.71-10.65 393.71-25.5 397.21-25.5 397.21-10.8Q397.21-8.15 398.39-6.25 399.56-4.35 401.41-3.38 403.26-2.4 405.36-2.4L405.36-2.4Q407.51-2.4 409.39-3.4 411.26-4.4 412.41-6.28 413.56-8.15 413.56-10.8L413.56-10.8 413.56-25.5 417.06-25.5 417.06-10.65Q417.06-7.2 415.49-4.65 413.91-2.1 411.29-0.73 408.66 0.65 405.36 0.65ZM443.96 0L437.71 0Q433.61 0 430.39-1.53 427.16-3.05 425.29-5.9 423.41-8.75 423.41-12.75L423.41-12.75Q423.41-16.45 424.91-19.48 426.41-22.5 429.14-24.3 431.86-26.1 435.51-26.1L435.51-26.1Q439.26-26.1 441.86-24.45 444.46-22.8 445.81-20 447.16-17.2 447.16-13.7L447.16-13.7Q447.16-13.2 447.11-12.6 447.06-12 446.96-11.55L446.96-11.55 427.11-11.55Q427.26-8.75 428.71-6.85 430.16-4.95 432.49-4 434.81-3.05 437.51-3.05L437.51-3.05 443.96-3.05 443.96 0ZM427.11-14.05L427.11-14.05 443.61-14.05Q443.61-15.05 443.41-16.28 443.21-17.5 442.69-18.7 442.16-19.9 441.24-20.9 440.31-21.9 438.89-22.53 437.46-23.15 435.41-23.15L435.41-23.15Q433.51-23.15 431.96-22.35 430.41-21.55 429.36-20.23 428.31-18.9 427.74-17.3 427.16-15.7 427.11-14.05ZM465.46 0L452.86 0 452.86-3.05 464.86-3.05Q466.41-3.05 467.46-3.7 468.51-4.35 469.08-5.4 469.66-6.45 469.66-7.55L469.66-7.55Q469.66-8.65 469.16-9.58 468.66-10.5 467.71-11.1 466.76-11.7 465.31-11.7L465.31-11.7 459.96-11.7Q457.51-11.7 455.73-12.53 453.96-13.35 453.03-14.9 452.11-16.45 452.11-18.5L452.11-18.5Q452.11-20.35 453.01-21.95 453.91-23.55 455.56-24.53 457.21-25.5 459.41-25.5L459.41-25.5 470.96-25.5 470.96-22.45 459.76-22.45Q457.81-22.45 456.71-21.28 455.61-20.1 455.61-18.6L455.61-18.6Q455.61-17.15 456.71-16 457.81-14.85 460.01-14.85L460.01-14.85 465.01-14.85Q467.71-14.85 469.53-13.95 471.36-13.05 472.28-11.45 473.21-9.85 473.21-7.7L473.21-7.7Q473.21-5.75 472.21-3.98 471.21-2.2 469.48-1.1 467.76 0 465.46 0L465.46 0Z" opacity="1" transform="matrix(1,0,0,1,0,0)" fill="#ffffff" class="undefined-text-1" data-fill-palette-color="secondary" id="text-1"></path></svg></g></svg></g></svg></g></svg></g></svg></g></svg></g></svg></g><g><path d="M244.431 169.529A122.216 122.216 0 1 1 244.431 77.671L240.603 77.671A118.388 118.388 0 1 0 240.603 169.529L244.431 169.529" fill="#ffffff" stroke="transparent" data-fill-palette-color="tertiary"></path></g></svg></g></svg><rect width="395.52" height="247.2" fill="none" stroke="none" visibility="hidden"></rect></g></svg></g></svg>