<svg xmlns="http://www.w3.org/2000/svg" version="1.1" xmlns:xlink="http://www.w3.org/1999/xlink" xmlns:svgjs="http://svgjs.dev/svgjs" width="1000" height="1000" viewBox="0 0 1000 1000"><rect width="1000" height="1000" fill="#ffffff"></rect><g transform="matrix(0.7,0,0,0.7,149.57575757575756,403.6457128032223)"><svg viewBox="0 0 396 109" data-background-color="#ffffff" preserveAspectRatio="xMidYMid meet" height="275" width="1000" xmlns="http://www.w3.org/2000/svg" xmlns:xlink="http://www.w3.org/1999/xlink"><defs></defs><g id="tight-bounds" transform="matrix(1,0,0,1,0.2400000000000091,0.05905093220138724)"><svg viewBox="0 0 395.52 108.88189813559724" height="108.88189813559724" width="395.52"><g><svg viewBox="0 0 569.906651436899 156.88844551110375" height="108.88189813559724" width="395.52"><g transform="matrix(1,0,0,1,0,21.682845942562096)"><svg viewBox="0 0 395.52 113.52275362597956" height="113.52275362597956" width="395.52"><g><svg viewBox="0 0 395.52 113.52275362597956" height="113.52275362597956" width="395.52"><g><svg viewBox="0 0 395.52 74.12107086614174" height="74.12107086614174" width="395.52"><g transform="matrix(1,0,0,1,0,0)"><svg width="395.52" viewBox="2.5999999046325684 -35.20000076293945 190.47999572753906 35.70000076293945" height="74.12107086614174" data-palette-color="#085f63"><path d="M12.5 0.5Q7.75 0.5 5.18-2.73 2.6-5.95 2.6-12.3L2.6-12.3Q2.6-18.75 5.23-24 7.85-29.25 12.18-32.23 16.5-35.2 21.45-35.2L21.45-35.2Q24.6-35.2 26.5-34.02 28.4-32.85 28.4-30.8L28.4-30.8Q28.4-29.5 27.4-27.65L27.4-27.65Q26.95-26.95 26.55-26.53 26.15-26.1 25.65-26.1L25.65-26.1Q25.2-26.1 25.05-26.48 24.9-26.85 24.8-27.45 24.7-28.05 24.6-28.4L24.6-28.4Q23.85-31.45 19.95-31.45L19.95-31.45Q16.55-31.45 13.95-29.18 11.35-26.9 9.95-22.88 8.55-18.85 8.55-13.75L8.55-13.75Q8.55-8.8 10.08-6.45 11.6-4.1 14.9-4.1L14.9-4.1Q18.15-4.1 20.1-5.85 22.05-7.6 23.55-10.25L23.55-10.25Q24-11.1 24.6-11.1L24.6-11.1Q25.1-11.1 25.1-10.45L25.1-10.45Q25.1-10 24.8-9L24.8-9Q23.5-4.6 20.18-2.05 16.85 0.5 12.5 0.5L12.5 0.5ZM30.9 0.5Q29.35 0.5 28.47-1.05 27.6-2.6 27.6-5.2L27.6-5.2Q27.6-9.35 29.62-13.7 31.65-18.05 35.15-20.93 38.65-23.8 42.7-23.8L42.7-23.8Q44-23.8 45.27-23.5 46.55-23.2 47.35-22.75L47.35-22.75Q46.9-21.65 46.75-20.95 46.6-20.25 46.55-20.05L46.55-20.05Q46.2-18.25 45.52-14.58 44.85-10.9 44.25-7.55L44.25-7.55Q43.95-6.05 43.95-5.25L43.95-5.25Q43.95-4.7 44.12-4.45 44.3-4.2 44.65-4.2L44.65-4.2Q45.5-4.2 46.2-5.23 46.9-6.25 47.7-8.1L47.7-8.1Q47.8-8.4 47.95-8.6 48.1-8.8 48.35-8.8L48.35-8.8Q48.8-8.8 48.8-8.1L48.8-8.1Q48.8-7.75 48.75-7.55L48.75-7.55Q48.5-5.65 47.45-3.78 46.4-1.9 44.87-0.7 43.35 0.5 41.75 0.5L41.75 0.5Q40.45 0.5 39.72-0.45 39-1.4 39-3L39-3Q39-3.4 39.1-4.2L39.1-4.2 39.35-5.9 39.25-5.9Q37.4-3.1 35.02-1.3 32.65 0.5 30.9 0.5L30.9 0.5ZM33.75-4.45Q34.85-4.45 36.57-6.4 38.3-8.35 39.8-11.33 41.3-14.3 41.8-17.25L41.8-17.25 42.15-19.2Q40.9-19.95 39.85-19.95L39.85-19.95Q38.25-19.95 36.62-17.98 35-16 33.97-12.88 32.95-9.75 32.95-6.5L32.95-6.5Q32.95-5.3 33.12-4.88 33.3-4.45 33.75-4.45L33.75-4.45ZM56.55 0.5Q54.89 0.5 54.09-0.55 53.3-1.6 53.3-3.9L53.3-3.9Q53.3-5.35 53.7-7.75L53.7-7.75 55.74-19.45 51.7-19.45Q51.14-19.45 50.92-19.58 50.7-19.7 50.7-19.95L50.7-19.95Q50.7-20.4 51.34-21.2 51.99-22 52.82-22.65 53.64-23.3 54.2-23.3L54.2-23.3 56.49-23.3 56.89-25.9Q57.24-27.75 58.97-29.2 60.7-30.65 62.34-30.65L62.34-30.65Q62.74-30.65 62.99-30.5 63.24-30.35 63.24-30.05L63.24-30.05Q63.24-29.85 62.74-28.98 62.24-28.1 61.99-26.55L61.99-26.55 61.45-23.3 65.69-23.3Q66.3-23.3 66.5-23.23 66.69-23.15 66.69-22.9L66.69-22.9Q66.69-22.4 66-21.58 65.3-20.75 64.39-20.1 63.49-19.45 63.05-19.45L63.05-19.45 60.8-19.45 58.8-7.55Q58.45-5.8 58.45-4.85L58.45-4.85Q58.45-4.15 58.67-3.88 58.89-3.6 59.34-3.6L59.34-3.6Q60.99-3.6 62.45-6.3L62.45-6.3Q62.59-6.65 62.74-6.83 62.89-7 63.09-7L63.09-7Q63.59-7 63.59-6.15L63.59-6.15Q63.59-4.85 62.59-3.28 61.59-1.7 59.97-0.6 58.34 0.5 56.55 0.5L56.55 0.5ZM73.09 0.5Q71.44 0.5 70.64-0.55 69.84-1.6 69.84-3.9L69.84-3.9Q69.84-5.35 70.24-7.75L70.24-7.75 72.29-19.45 68.24-19.45Q67.69-19.45 67.47-19.58 67.24-19.7 67.24-19.95L67.24-19.95Q67.24-20.4 67.89-21.2 68.54-22 69.37-22.65 70.19-23.3 70.74-23.3L70.74-23.3 73.04-23.3 73.44-25.9Q73.79-27.75 75.52-29.2 77.24-30.65 78.89-30.65L78.89-30.65Q79.29-30.65 79.54-30.5 79.79-30.35 79.79-30.05L79.79-30.05Q79.79-29.85 79.29-28.98 78.79-28.1 78.54-26.55L78.54-26.55 77.99-23.3 82.24-23.3Q82.84-23.3 83.04-23.23 83.24-23.15 83.24-22.9L83.24-22.9Q83.24-22.4 82.54-21.58 81.84-20.75 80.94-20.1 80.04-19.45 79.59-19.45L79.59-19.45 77.34-19.45 75.34-7.55Q74.99-5.8 74.99-4.85L74.99-4.85Q74.99-4.15 75.22-3.88 75.44-3.6 75.89-3.6L75.89-3.6Q77.54-3.6 78.99-6.3L78.99-6.3Q79.14-6.65 79.29-6.83 79.44-7 79.64-7L79.64-7Q80.14-7 80.14-6.15L80.14-6.15Q80.14-4.85 79.14-3.28 78.14-1.7 76.52-0.6 74.89 0.5 73.09 0.5L73.09 0.5ZM88.79 0.5Q86.19 0.5 86.19-3.45L86.19-3.45Q86.19-4.95 86.64-7.65L86.64-7.65 88.19-16.8Q88.39-17.8 88.39-18.5L88.39-18.5Q88.39-19.15 87.94-19.15L87.94-19.15Q87.44-19.15 86.86-18.48 86.29-17.8 85.29-16L85.29-16Q85.09-15.6 84.84-15.28 84.59-14.95 84.34-14.95L84.34-14.95Q83.84-14.95 83.84-15.8L83.84-15.8Q83.84-17.1 85.04-19.03 86.24-20.95 87.96-22.38 89.69-23.8 91.29-23.8L91.29-23.8Q92.39-23.8 92.97-23.13 93.54-22.45 93.54-21.2L93.54-21.2Q93.54-20.9 93.44-20.2L93.44-20.2 91.29-5.85 91.29-5.35Q91.29-4.95 91.39-4.78 91.49-4.6 91.79-4.6L91.79-4.6Q92.94-4.6 94.52-6.45 96.09-8.3 97.44-11.18 98.79-14.05 99.34-17L99.34-17 99.84-19.6Q100.19-21.45 101.69-22.63 103.19-23.8 104.99-23.8L104.99-23.8Q105.39-23.8 105.56-23.7 105.74-23.6 105.74-23.3L105.74-23.3Q105.74-23.1 105.49-22.5 105.24-21.9 104.94-20.25L104.94-20.25Q104.49-18.5 102.39-7.2L102.39-7.2Q102.14-6.1 102.14-5.15L102.14-5.15Q102.14-4.2 102.74-4.2L102.74-4.2Q103.54-4.2 104.09-5.08 104.64-5.95 105.69-8.1L105.69-8.1Q105.94-8.8 106.29-8.8L106.29-8.8Q106.74-8.8 106.74-7.95L106.74-7.95Q106.74-6.3 105.66-4.3 104.59-2.3 102.89-0.9 101.19 0.5 99.49 0.5L99.49 0.5Q97.14 0.5 97.14-2.45L97.14-2.45Q97.14-3.85 97.64-6.5L97.64-6.5 97.54-6.55Q95.59-3.6 93.24-1.55 90.89 0.5 88.79 0.5L88.79 0.5ZM112.99 0.5Q111.34 0.5 110.24-0.1 109.14-0.7 108.61-1.53 108.09-2.35 108.04-3.05L108.04-3.05Q107.89-3.95 108.49-4.93 109.09-5.9 110.14-6.7L110.14-6.7Q110.79-7.2 111.04-7.2L111.04-7.2Q111.24-7.2 111.41-6.98 111.59-6.75 111.74-6.4L111.74-6.4Q112.24-4.95 112.99-4.05 113.74-3.15 115.19-3.15L115.19-3.15Q116.39-3.15 117.16-3.8 117.94-4.45 117.94-5.5L117.94-5.5Q117.94-6.15 117.49-7.08 117.04-8 115.84-9.8L115.84-9.8 114.79-11.3Q113.44-13.3 112.96-14.28 112.49-15.25 112.49-16.25L112.49-16.25Q112.49-18.25 113.66-20 114.84-21.75 116.76-22.78 118.69-23.8 120.89-23.8L120.89-23.8Q122.84-23.8 124.14-23.03 125.44-22.25 125.44-20.95L125.44-20.95Q125.44-20 124.59-18.8L124.59-18.8Q123.94-18 123.54-18L123.54-18Q123.34-18 123.24-18.1 123.14-18.2 123.01-18.38 122.89-18.55 122.79-18.7L122.79-18.7Q121.64-20.35 119.79-20.35L119.79-20.35Q118.59-20.35 117.84-19.8 117.09-19.25 117.09-18.25L117.09-18.25Q117.09-17.5 117.49-16.82 117.89-16.15 118.74-15.1L118.74-15.1 119.59-14 120.74-12.5Q121.74-11.15 122.19-10.08 122.64-9 122.64-7.7L122.64-7.7Q122.64-5.3 121.11-3.43 119.59-1.55 117.31-0.53 115.04 0.5 112.99 0.5L112.99 0.5ZM128.78 0.5Q127.84 0.5 127.19-0.13 126.53-0.75 126.53-1.8L126.53-1.8Q126.53-2.8 127.19-3.83 127.84-4.85 128.84-5.53 129.84-6.2 130.84-6.2L130.84-6.2Q131.84-6.2 132.46-5.58 133.09-4.95 133.09-3.9L133.09-3.9Q133.09-2.9 132.46-1.88 131.84-0.85 130.84-0.18 129.84 0.5 128.78 0.5L128.78 0.5ZM142.73-25.5Q142.38-25.5 142.28-25.63 142.18-25.75 142.23-26.1L142.23-26.1 142.93-30.05Q143.23-31.65 144.33-32.63 145.43-33.6 147.48-33.6L147.48-33.6 147.88-33.6Q148.43-33.6 148.38-33.05L148.38-33.05 147.68-29.1Q147.08-25.5 143.08-25.5L143.08-25.5 142.73-25.5ZM140.63 0.5Q138.18 0.5 138.18-2.8L138.18-2.8Q138.18-3.7 138.43-5.2L138.43-5.2 140.83-17.3Q140.93-18.2 140.93-18.4L140.93-18.4Q140.93-19.1 140.48-19.1L140.48-19.1Q140.03-19.1 139.43-18.38 138.83-17.65 137.88-16L137.88-16Q137.83-15.9 137.66-15.58 137.48-15.25 137.33-15.1 137.18-14.95 137.03-14.95L137.03-14.95Q136.58-14.95 136.58-15.75L136.58-15.75Q136.58-17.15 137.78-19.07 138.98-21 140.78-22.4 142.58-23.8 144.28-23.8L144.28-23.8Q146.38-23.8 146.38-21L146.38-21Q146.38-20.2 146.03-18.25L146.03-18.25 143.53-5.35Q143.43-4.95 143.43-4.8L143.43-4.8Q143.43-4.2 143.98-4.2L143.98-4.2Q144.63-4.2 145.46-5.25 146.28-6.3 147.03-8.1L147.03-8.1Q147.28-8.8 147.63-8.8L147.63-8.8Q148.08-8.8 148.08-7.95L148.08-7.95Q148.08-6.2 146.93-4.23 145.78-2.25 144.06-0.88 142.33 0.5 140.63 0.5L140.63 0.5ZM152.83 0.5Q152.03 0.5 152.03-0.05L152.03-0.05Q152.03-0.25 152.28-1.1L152.28-1.1Q152.53-1.75 152.98-3.6L152.98-3.6Q153.33-5.05 153.98-8.85 154.63-12.65 155.18-16.25L155.18-16.25Q155.43-17.85 155.43-18.3L155.43-18.3Q155.43-19.05 154.98-19.05L154.98-19.05Q154.53-19.05 153.83-18.28 153.13-17.5 152.33-16L152.33-16Q152.13-15.6 151.88-15.28 151.63-14.95 151.38-14.95L151.38-14.95Q150.88-14.95 150.88-15.8L150.88-15.8Q150.88-17.15 152.06-19.07 153.23-21 154.96-22.4 156.68-23.8 158.28-23.8L158.28-23.8Q159.28-23.8 159.88-23.1 160.48-22.4 160.48-20.9L160.48-20.9Q160.48-18.95 160.08-16.45L160.08-16.45 160.13-16.45Q165.48-23.8 169.13-23.8L169.13-23.8Q171.68-23.8 171.68-20.25L171.68-20.25Q171.68-18.7 171.23-16.45L171.23-16.45Q170.03-10.6 169.58-8.18 169.13-5.75 169.13-5.25L169.13-5.25Q169.13-4.2 169.73-4.2L169.73-4.2Q171.13-4.2 172.58-8.1L172.58-8.1Q172.88-8.8 173.23-8.8L173.23-8.8Q173.83-8.8 173.73-7.55L173.73-7.55Q173.53-5.8 172.43-3.9 171.33-2 169.71-0.75 168.08 0.5 166.43 0.5L166.43 0.5Q163.98 0.5 163.98-2.8L163.98-2.8Q163.98-4.1 164.28-5.95 164.58-7.8 165.18-10.7L165.18-10.7Q165.58-12.65 165.91-14.6 166.23-16.55 166.28-17.75L166.28-17.75 166.28-18.15Q166.28-18.95 165.78-18.95L165.78-18.95Q164.93-18.95 163.43-17.18 161.93-15.4 160.61-12.75 159.28-10.1 158.78-7.65L158.78-7.65 157.98-3.6Q157.68-2.1 156.06-0.8 154.43 0.5 152.83 0.5L152.83 0.5ZM181.23 0.5Q178.78 0.5 177.35-1.33 175.93-3.15 175.93-6.3L175.93-6.3Q175.93-10.1 177.9-14.23 179.88-18.35 183.05-21.08 186.23-23.8 189.58-23.8L189.58-23.8Q191.13-23.8 192.1-23.18 193.08-22.55 193.08-21.5L193.08-21.5Q193.08-20.75 192.23-19.2L192.23-19.2Q191.83-18.5 191.38-18.5L191.38-18.5Q191.03-18.5 190.78-18.8L190.78-18.8Q189.43-20.15 187.73-20.15L187.73-20.15Q185.88-20.15 184.4-18.75 182.93-17.35 182.1-14.93 181.28-12.5 181.28-9.5L181.28-9.5Q181.28-6.8 182-5.58 182.73-4.35 184.33-4.35L184.33-4.35Q186.98-4.35 189.03-8.05L189.03-8.05Q189.28-8.6 189.45-8.78 189.63-8.95 189.88-8.95L189.88-8.95Q190.38-8.95 190.38-8.05L190.38-8.05Q190.38-6.35 189.03-4.33 187.68-2.3 185.55-0.9 183.43 0.5 181.23 0.5L181.23 0.5Z" opacity="1" transform="matrix(1,0,0,1,0,0)" fill="#000000" class="undefined-text-0" data-fill-palette-color="primary" id="text-0"></path></svg></g></svg></g><g transform="matrix(1,0,0,1,163.310208,91.61927679193701)"><svg viewBox="0 0 232.209792 21.903476834042554" height="21.903476834042554" width="232.209792"><g transform="matrix(1,0,0,1,0,0)"><svg width="232.209792" viewBox="1.9500000476837158 -39.20000076293945 422.9599914550781 39.900001525878906" height="21.903476834042554" data-palette-color="#49beb7"><path d="M1.95-34.4L1.95-35.4Q3.1-35.35 4.93-35.3 6.75-35.25 8.55-35.25L8.55-35.25Q10.95-35.25 13.13-35.3 15.3-35.35 16.2-35.35L16.2-35.35Q22.55-35.35 25.7-32.93 28.85-30.5 28.85-26.65L28.85-26.65Q28.85-25.1 28.23-23.38 27.6-21.65 26.05-20.18 24.5-18.7 21.85-17.75 19.2-16.8 15.1-16.8L15.1-16.8 10.3-16.8 10.3-17.8 14.6-17.8Q17.95-17.8 19.73-18.93 21.5-20.05 22.13-21.93 22.75-23.8 22.75-26.1L22.75-26.1Q22.75-30.05 21.05-32.23 19.35-34.4 15.15-34.4L15.15-34.4Q13-34.4 12.33-33.55 11.65-32.7 11.65-30.1L11.65-30.1 11.65-5.3Q11.65-3.5 11.95-2.6 12.25-1.7 13.1-1.4 13.95-1.1 15.6-1L15.6-1 15.6 0Q14.4-0.1 12.58-0.13 10.75-0.15 8.85-0.15L8.85-0.15Q6.75-0.15 4.93-0.13 3.1-0.1 1.95 0L1.95 0 1.95-1Q3.65-1.1 4.5-1.4 5.35-1.7 5.63-2.6 5.9-3.5 5.9-5.3L5.9-5.3 5.9-30.1Q5.9-31.95 5.63-32.83 5.35-33.7 4.48-34.02 3.6-34.35 1.95-34.4L1.95-34.4ZM10.5-16.8L10.4-17.65Q12.95-17.55 14.5-17.43 16.05-17.3 17.1-17.2 18.15-17.1 19.05-16.95L19.05-16.95Q22.8-16.45 24.53-14.95 26.25-13.45 26.9-10.35L26.9-10.35 28.15-5.25Q28.6-3.1 29.13-2.2 29.65-1.3 30.7-1.3L30.7-1.3Q31.5-1.35 32.02-1.78 32.55-2.2 33.15-2.95L33.15-2.95 33.85-2.4Q32.7-0.85 31.45-0.08 30.2 0.7 28.1 0.7L28.1 0.7Q25.95 0.7 24.43-0.43 22.9-1.55 22.25-4.7L22.25-4.7 21.25-9.7Q20.8-11.85 20.25-13.43 19.7-15 18.73-15.9 17.75-16.8 15.9-16.8L15.9-16.8 10.5-16.8ZM46.9-26.5L46.9-26.5Q51.3-26.5 53.8-23.85 56.3-21.2 56.3-15.45L56.3-15.45 39.05-15.45 38.95-16.4 51-16.4Q51.05-18.85 50.6-20.93 50.15-23 49.2-24.25 48.25-25.5 46.7-25.5L46.7-25.5Q44.55-25.5 42.97-23.23 41.4-20.95 41.05-15.95L41.05-15.95 41.2-15.7Q41.15-15 41.1-14.18 41.05-13.35 41.05-12.55L41.05-12.55Q41.05-9.1 42.1-6.75 43.15-4.4 44.85-3.23 46.55-2.05 48.3-2.05L48.3-2.05Q50.3-2.05 52.17-3.05 54.05-4.05 55.4-6.75L55.4-6.75 56.4-6.35Q55.8-4.65 54.55-3 53.3-1.35 51.35-0.33 49.4 0.7 46.8 0.7L46.8 0.7Q43.3 0.7 40.7-0.88 38.1-2.45 36.7-5.4 35.3-8.35 35.3-12.4L35.3-12.4Q35.3-16.85 36.75-20 38.2-23.15 40.82-24.83 43.45-26.5 46.9-26.5ZM66.45 0.35L66.45 0.35Q63.15 0.35 61.67-1.33 60.2-3 60.2-5.6L60.2-5.6Q60.2-7.75 61.2-9.1 62.2-10.45 63.77-11.33 65.34-12.2 67.12-12.83 68.9-13.45 70.47-14.03 72.05-14.6 73.07-15.35 74.09-16.1 74.09-17.25L74.09-17.25 74.09-20.65Q74.09-22.45 73.52-23.53 72.95-24.6 71.97-25.05 71-25.5 69.65-25.5L69.65-25.5Q68.5-25.5 67.2-25.18 65.9-24.85 65.15-23.9L65.15-23.9Q66.25-23.6 66.97-22.73 67.7-21.85 67.7-20.55L67.7-20.55Q67.7-19.15 66.77-18.35 65.84-17.55 64.45-17.55L64.45-17.55Q62.9-17.55 62.15-18.53 61.4-19.5 61.4-20.8L61.4-20.8Q61.4-22.15 62.07-23 62.75-23.85 63.85-24.6L63.85-24.6Q65.05-25.4 66.92-25.95 68.8-26.5 71.09-26.5L71.09-26.5Q73.25-26.5 74.82-26.03 76.4-25.55 77.45-24.5L77.45-24.5Q78.7-23.35 79.09-21.63 79.5-19.9 79.5-17.45L79.5-17.45 79.5-3.65Q79.5-2.45 79.8-1.9 80.09-1.35 80.9-1.35L80.9-1.35Q81.5-1.35 82-1.65 82.5-1.95 83-2.35L83-2.35 83.5-1.5Q82.45-0.65 81.37-0.15 80.3 0.35 78.65 0.35L78.65 0.35Q75.9 0.35 75.02-0.95 74.15-2.25 74.09-3.95L74.09-3.95Q72.65-1.5 70.67-0.58 68.7 0.35 66.45 0.35ZM69.2-2.05L69.2-2.05Q70.5-2.05 71.75-2.78 73-3.5 74.09-5.25L74.09-5.25 74.09-15.2Q73.4-14.15 71.97-13.5 70.55-12.85 69.07-12.08 67.59-11.3 66.55-10 65.5-8.7 65.5-6.4L65.5-6.4Q65.5-4.15 66.55-3.1 67.59-2.05 69.2-2.05ZM93.69-39.2L93.69-39.2 93.69-4.65Q93.69-2.55 94.52-1.8 95.34-1.05 97.29-1.05L97.29-1.05 97.29 0Q96.44-0.05 94.64-0.13 92.84-0.2 91.04-0.2L91.04-0.2Q89.24-0.2 87.42-0.13 85.59-0.05 84.69 0L84.69 0 84.69-1.05Q86.64-1.05 87.47-1.8 88.29-2.55 88.29-4.65L88.29-4.65 88.29-33.2Q88.29-35.45 87.54-36.52 86.79-37.6 84.69-37.6L84.69-37.6 84.69-38.65Q86.29-38.5 87.79-38.5L87.79-38.5Q89.44-38.5 90.94-38.68 92.44-38.85 93.69-39.2ZM153.09-35.4L153.09-35.4 153.09-34.4Q151.39-34.35 150.54-34.02 149.69-33.7 149.41-32.83 149.14-31.95 149.14-30.1L149.14-30.1 149.14-5.3Q149.14-3.5 149.41-2.6 149.69-1.7 150.54-1.4 151.39-1.1 153.09-1L153.09-1 153.09 0Q151.84-0.1 149.99-0.13 148.14-0.15 146.24-0.15L146.24-0.15Q144.14-0.15 142.29-0.13 140.44-0.1 139.34 0L139.34 0 139.34-1Q141.04-1.1 141.91-1.4 142.79-1.7 143.09-2.6 143.39-3.5 143.39-5.3L143.39-5.3 143.39-32.65 143.64-32.55 131.34 0.2 130.54 0.2 117.64-32.2 117.64-6.6Q117.64-4.5 117.94-3.33 118.24-2.15 119.24-1.65 120.24-1.15 122.29-1L122.29-1 122.29 0Q121.34-0.1 119.86-0.13 118.39-0.15 117.09-0.15L117.09-0.15Q115.84-0.15 114.59-0.13 113.34-0.1 112.54 0L112.54 0 112.54-1Q114.19-1.15 115.04-1.63 115.89-2.1 116.19-3.25 116.49-4.4 116.49-6.4L116.49-6.4 116.49-30.1Q116.49-31.95 116.19-32.83 115.89-33.7 115.04-34.02 114.19-34.35 112.54-34.4L112.54-34.4 112.54-35.4Q113.34-35.35 114.59-35.3 115.84-35.25 117.09-35.25L117.09-35.25Q118.54-35.25 120.01-35.3 121.49-35.35 122.54-35.4L122.54-35.4 133.59-7 132.64-6.35 143.49-35.25Q144.14-35.25 144.84-35.25 145.54-35.25 146.24-35.25L146.24-35.25Q148.14-35.25 149.99-35.3 151.84-35.35 153.09-35.4ZM162.84 0.35L162.84 0.35Q159.54 0.35 158.06-1.33 156.59-3 156.59-5.6L156.59-5.6Q156.59-7.75 157.59-9.1 158.59-10.45 160.16-11.33 161.74-12.2 163.51-12.83 165.29-13.45 166.86-14.03 168.44-14.6 169.46-15.35 170.49-16.1 170.49-17.25L170.49-17.25 170.49-20.65Q170.49-22.45 169.91-23.53 169.34-24.6 168.36-25.05 167.39-25.5 166.04-25.5L166.04-25.5Q164.89-25.5 163.59-25.18 162.29-24.85 161.54-23.9L161.54-23.9Q162.64-23.6 163.36-22.73 164.09-21.85 164.09-20.55L164.09-20.55Q164.09-19.15 163.16-18.35 162.24-17.55 160.84-17.55L160.84-17.55Q159.29-17.55 158.54-18.53 157.79-19.5 157.79-20.8L157.79-20.8Q157.79-22.15 158.46-23 159.14-23.85 160.24-24.6L160.24-24.6Q161.44-25.4 163.31-25.95 165.19-26.5 167.49-26.5L167.49-26.5Q169.64-26.5 171.21-26.03 172.79-25.55 173.84-24.5L173.84-24.5Q175.09-23.35 175.49-21.63 175.89-19.9 175.89-17.45L175.89-17.45 175.89-3.65Q175.89-2.45 176.19-1.9 176.49-1.35 177.29-1.35L177.29-1.35Q177.89-1.35 178.39-1.65 178.89-1.95 179.39-2.35L179.39-2.35 179.89-1.5Q178.84-0.65 177.76-0.15 176.69 0.35 175.04 0.35L175.04 0.35Q172.29 0.35 171.41-0.95 170.54-2.25 170.49-3.95L170.49-3.95Q169.04-1.5 167.06-0.58 165.09 0.35 162.84 0.35ZM165.59-2.05L165.59-2.05Q166.89-2.05 168.14-2.78 169.39-3.5 170.49-5.25L170.49-5.25 170.49-15.2Q169.79-14.15 168.36-13.5 166.94-12.85 165.46-12.08 163.99-11.3 162.94-10 161.89-8.7 161.89-6.4L161.89-6.4Q161.89-4.15 162.94-3.1 163.99-2.05 165.59-2.05ZM197.48-26.5L197.48-26.5Q198.93-26.5 199.96-25.9 200.98-25.3 201.51-24.38 202.03-23.45 202.03-22.3L202.03-22.3Q202.03-20.85 201.16-19.83 200.28-18.8 198.83-18.8L198.83-18.8Q197.58-18.8 196.71-19.55 195.83-20.3 195.83-21.6L195.83-21.6Q195.83-22.7 196.41-23.48 196.98-24.25 197.73-24.7L197.73-24.7Q197.23-25.1 196.53-25.05L196.53-25.05Q194.73-24.95 193.36-23.58 191.98-22.2 191.18-20.25 190.38-18.3 190.38-16.65L190.38-16.65 190.38-5.15Q190.38-2.7 191.73-1.88 193.08-1.05 195.48-1.05L195.48-1.05 195.48 0Q194.33-0.05 192.21-0.13 190.08-0.2 187.73-0.2L187.73-0.2Q185.93-0.2 184.13-0.13 182.33-0.05 181.38 0L181.38 0 181.38-1.05Q183.33-1.05 184.16-1.8 184.98-2.55 184.98-4.65L184.98-4.65 184.98-20.35Q184.98-22.6 184.23-23.68 183.48-24.75 181.38-24.75L181.38-24.75 181.38-25.8Q182.98-25.65 184.48-25.65L184.48-25.65Q186.18-25.65 187.66-25.83 189.13-26 190.38-26.35L190.38-26.35 190.38-20.6Q190.98-22.05 191.98-23.4 192.98-24.75 194.38-25.63 195.78-26.5 197.48-26.5ZM211.53-39.2L211.53-39.2 211.53-4.65Q211.53-2.55 212.26-1.8 212.98-1.05 214.73-1.05L214.73-1.05 214.73 0Q213.88-0.05 212.21-0.13 210.53-0.2 208.83-0.2L208.83-0.2Q207.08-0.2 205.26-0.13 203.43-0.05 202.53 0L202.53 0 202.53-1.05Q204.48-1.05 205.31-1.8 206.13-2.55 206.13-4.65L206.13-4.65 206.13-33.2Q206.13-35.45 205.36-36.52 204.58-37.6 202.53-37.6L202.53-37.6 202.53-38.65Q204.13-38.5 205.63-38.5L205.63-38.5Q207.28-38.5 208.78-38.68 210.28-38.85 211.53-39.2ZM227.53-25.8L227.53-25.8 227.53-24.8Q226.18-24.6 224.93-23.9 223.68-23.2 222.48-21.95L222.48-21.95 216.48-15.65 217.13-16.9 226.18-3.65Q226.93-2.6 227.63-1.93 228.33-1.25 229.38-1.05L229.38-1.05 229.38 0Q228.73-0.05 227.46-0.13 226.18-0.2 224.93-0.2L224.93-0.2Q223.28-0.2 221.58-0.13 219.88-0.05 219.08 0L219.08 0 219.08-1.05Q220.08-1.05 220.46-1.55 220.83-2.05 220.33-2.75L220.33-2.75 214.83-11.35Q213.98-12.55 213.28-12.9 212.58-13.25 211.28-13.3L211.28-13.3 211.28-14.3Q212.73-14.45 213.66-14.85 214.58-15.25 215.38-16.15L215.38-16.15 219.13-19.95Q220.73-21.55 220.73-22.63 220.73-23.7 219.71-24.23 218.68-24.75 216.98-24.8L216.98-24.8 216.98-25.8Q218.33-25.75 219.96-25.68 221.58-25.6 222.68-25.6L222.68-25.6Q223.58-25.6 224.51-25.63 225.43-25.65 226.23-25.7 227.03-25.75 227.53-25.8ZM242.08-26.5L242.08-26.5Q246.48-26.5 248.98-23.85 251.48-21.2 251.48-15.45L251.48-15.45 234.23-15.45 234.13-16.4 246.18-16.4Q246.23-18.85 245.78-20.93 245.33-23 244.38-24.25 243.43-25.5 241.88-25.5L241.88-25.5Q239.73-25.5 238.15-23.23 236.58-20.95 236.23-15.95L236.23-15.95 236.38-15.7Q236.33-15 236.28-14.18 236.23-13.35 236.23-12.55L236.23-12.55Q236.23-9.1 237.28-6.75 238.33-4.4 240.03-3.23 241.73-2.05 243.48-2.05L243.48-2.05Q245.48-2.05 247.35-3.05 249.23-4.05 250.58-6.75L250.58-6.75 251.58-6.35Q250.98-4.65 249.73-3 248.48-1.35 246.53-0.33 244.58 0.7 241.98 0.7L241.98 0.7Q238.48 0.7 235.88-0.88 233.28-2.45 231.88-5.4 230.48-8.35 230.48-12.4L230.48-12.4Q230.48-16.85 231.93-20 233.38-23.15 236-24.83 238.63-26.5 242.08-26.5ZM263.68-34.05L263.68-34.05 263.68-25.75 270.58-25.75 270.58-24.75 263.68-24.75 263.68-5.1Q263.68-3.05 264.43-2.2 265.18-1.35 266.58-1.35L266.58-1.35Q267.88-1.35 268.9-2.4 269.93-3.45 270.68-5.95L270.68-5.95 271.63-5.6Q271.03-2.95 269.5-1.13 267.98 0.7 265.03 0.7L265.03 0.7Q263.33 0.7 262.18 0.28 261.03-0.15 260.18-0.95L260.18-0.95Q259.08-2.1 258.68-3.7 258.28-5.3 258.28-7.95L258.28-7.95 258.28-24.75 253.68-24.75 253.68-25.75 258.28-25.75 258.28-33.05Q259.83-33.1 261.18-33.33 262.53-33.55 263.68-34.05ZM313.52-35.4L313.52-35.4 313.52-34.4Q312.52-34.15 311.4-33.05 310.27-31.95 309.32-29.5L309.32-29.5 297.97 0.2Q297.77 0.2 297.57 0.2 297.37 0.2 297.12 0.2L297.12 0.2Q296.92 0.2 296.72 0.2 296.52 0.2 296.32 0.2L296.32 0.2 283.92-31.2Q283.17-33.05 282.27-33.7 281.37-34.35 280.57-34.4L280.57-34.4 280.57-35.4Q281.72-35.35 283.4-35.3 285.07-35.25 286.67-35.25L286.67-35.25Q288.72-35.25 290.55-35.3 292.37-35.35 293.47-35.4L293.47-35.4 293.47-34.4Q290.97-34.3 290.27-33.55 289.57-32.8 290.52-30.2L290.52-30.2 299.77-6.05 298.87-5.05 306.97-26.35Q308.12-29.4 308.12-31.13 308.12-32.85 307.02-33.6 305.92-34.35 303.82-34.4L303.82-34.4 303.82-35.4Q305.37-35.35 306.87-35.3 308.37-35.25 309.72-35.25L309.72-35.25Q310.97-35.25 311.87-35.3 312.77-35.35 313.52-35.4ZM317.92 0.35L317.92 0.35Q314.62 0.35 313.14-1.33 311.67-3 311.67-5.6L311.67-5.6Q311.67-7.75 312.67-9.1 313.67-10.45 315.24-11.33 316.82-12.2 318.59-12.83 320.37-13.45 321.94-14.03 323.52-14.6 324.54-15.35 325.57-16.1 325.57-17.25L325.57-17.25 325.57-20.65Q325.57-22.45 324.99-23.53 324.42-24.6 323.44-25.05 322.47-25.5 321.12-25.5L321.12-25.5Q319.97-25.5 318.67-25.18 317.37-24.85 316.62-23.9L316.62-23.9Q317.72-23.6 318.44-22.73 319.17-21.85 319.17-20.55L319.17-20.55Q319.17-19.15 318.24-18.35 317.32-17.55 315.92-17.55L315.92-17.55Q314.37-17.55 313.62-18.53 312.87-19.5 312.87-20.8L312.87-20.8Q312.87-22.15 313.54-23 314.22-23.85 315.32-24.6L315.32-24.6Q316.52-25.4 318.39-25.95 320.27-26.5 322.57-26.5L322.57-26.5Q324.72-26.5 326.29-26.03 327.87-25.55 328.92-24.5L328.92-24.5Q330.17-23.35 330.57-21.63 330.97-19.9 330.97-17.45L330.97-17.45 330.97-3.65Q330.97-2.45 331.27-1.9 331.57-1.35 332.37-1.35L332.37-1.35Q332.97-1.35 333.47-1.65 333.97-1.95 334.47-2.35L334.47-2.35 334.97-1.5Q333.92-0.65 332.84-0.15 331.77 0.35 330.12 0.35L330.12 0.35Q327.37 0.35 326.49-0.95 325.62-2.25 325.57-3.95L325.57-3.95Q324.12-1.5 322.14-0.58 320.17 0.35 317.92 0.35ZM320.67-2.05L320.67-2.05Q321.97-2.05 323.22-2.78 324.47-3.5 325.57-5.25L325.57-5.25 325.57-15.2Q324.87-14.15 323.44-13.5 322.02-12.85 320.54-12.08 319.07-11.3 318.02-10 316.97-8.7 316.97-6.4L316.97-6.4Q316.97-4.15 318.02-3.1 319.07-2.05 320.67-2.05ZM345.17-39.2L345.17-39.2 345.17-4.65Q345.17-2.55 345.99-1.8 346.81-1.05 348.76-1.05L348.76-1.05 348.76 0Q347.92-0.05 346.12-0.13 344.31-0.2 342.51-0.2L342.51-0.2Q340.72-0.2 338.89-0.13 337.06-0.05 336.17 0L336.17 0 336.17-1.05Q338.12-1.05 338.94-1.8 339.76-2.55 339.76-4.65L339.76-4.65 339.76-33.2Q339.76-35.45 339.01-36.52 338.26-37.6 336.17-37.6L336.17-37.6 336.17-38.65Q337.76-38.5 339.26-38.5L339.26-38.5Q340.92-38.5 342.42-38.68 343.92-38.85 345.17-39.2ZM374.61-26.35L374.61-26.35 374.61-5.4Q374.61-3.15 375.39-2.08 376.16-1 378.21-1L378.21-1 378.21 0.05Q376.66-0.1 375.11-0.1L375.11-0.1Q373.46-0.1 371.96 0.05 370.46 0.2 369.21 0.6L369.21 0.6 369.21-4.85Q367.96-1.85 365.74-0.58 363.51 0.7 361.06 0.7L361.06 0.7Q359.21 0.7 357.91 0.18 356.61-0.35 355.76-1.2L355.76-1.2Q354.86-2.2 354.51-3.78 354.16-5.35 354.16-7.75L354.16-7.75 354.16-20.35Q354.16-22.6 353.41-23.68 352.66-24.75 350.56-24.75L350.56-24.75 350.56-25.8Q352.16-25.65 353.66-25.65L353.66-25.65Q355.31-25.65 356.81-25.83 358.31-26 359.56-26.35L359.56-26.35 359.56-6.35Q359.56-4.9 359.76-3.7 359.96-2.5 360.71-1.8 361.46-1.1 363.11-1.1L363.11-1.1Q365.71-1.1 367.46-3.4 369.21-5.7 369.21-9.05L369.21-9.05 369.21-20.35Q369.21-22.6 368.46-23.68 367.71-24.75 365.61-24.75L365.61-24.75 365.61-25.8Q367.21-25.65 368.71-25.65L368.71-25.65Q370.36-25.65 371.86-25.83 373.36-26 374.61-26.35ZM393.01-26.5L393.01-26.5Q397.41-26.5 399.91-23.85 402.41-21.2 402.41-15.45L402.41-15.45 385.16-15.45 385.06-16.4 397.11-16.4Q397.16-18.85 396.71-20.93 396.26-23 395.31-24.25 394.36-25.5 392.81-25.5L392.81-25.5Q390.66-25.5 389.08-23.23 387.51-20.95 387.16-15.95L387.16-15.95 387.31-15.7Q387.26-15 387.21-14.18 387.16-13.35 387.16-12.55L387.16-12.55Q387.16-9.1 388.21-6.75 389.26-4.4 390.96-3.23 392.66-2.05 394.41-2.05L394.41-2.05Q396.41-2.05 398.28-3.05 400.16-4.05 401.51-6.75L401.51-6.75 402.51-6.35Q401.91-4.65 400.66-3 399.41-1.35 397.46-0.33 395.51 0.7 392.91 0.7L392.91 0.7Q389.41 0.7 386.81-0.88 384.21-2.45 382.81-5.4 381.41-8.35 381.41-12.4L381.41-12.4Q381.41-16.85 382.86-20 384.31-23.15 386.94-24.83 389.56-26.5 393.01-26.5ZM415.16-26.5L415.16-26.5Q417.16-26.5 418.63-25.88 420.11-25.25 420.76-24.75L420.76-24.75Q422.41-23.45 422.81-26.45L422.81-26.45 423.91-26.45Q423.81-25.05 423.76-23.08 423.71-21.1 423.71-17.85L423.71-17.85 422.61-17.85Q422.31-19.7 421.58-21.45 420.86-23.2 419.48-24.35 418.11-25.5 415.91-25.5L415.91-25.5Q414.26-25.5 413.16-24.58 412.06-23.65 412.06-21.85L412.06-21.85Q412.06-20.35 412.96-19.25 413.86-18.15 415.28-17.2 416.71-16.25 418.36-15.15L418.36-15.15Q421.11-13.3 423.01-11.4 424.91-9.5 424.91-6.45L424.91-6.45Q424.91-4.15 423.68-2.55 422.46-0.95 420.46-0.13 418.46 0.7 416.06 0.7L416.06 0.7Q414.86 0.7 413.81 0.48 412.76 0.25 411.86-0.1L411.86-0.1Q411.31-0.4 410.78-0.73 410.26-1.05 409.76-1.35L409.76-1.35Q409.26-1.7 408.86-1.25 408.46-0.8 408.26 0.35L408.26 0.35 407.16 0.35Q407.26-1.25 407.31-3.55 407.36-5.85 407.36-9.65L407.36-9.65 408.46-9.65Q408.81-6.9 409.51-4.8 410.21-2.7 411.58-1.53 412.96-0.35 415.36-0.35L415.36-0.35Q416.76-0.35 418.11-1.33 419.46-2.3 419.46-4.7L419.46-4.7Q419.46-6.9 417.93-8.33 416.41-9.75 414.01-11.35L414.01-11.35Q412.31-12.55 410.78-13.73 409.26-14.9 408.31-16.38 407.36-17.85 407.36-19.9L407.36-19.9Q407.36-22.15 408.43-23.6 409.51-25.05 411.31-25.78 413.11-26.5 415.16-26.5Z" opacity="1" transform="matrix(1,0,0,1,0,0)" fill="#000000" class="undefined-text-1" data-fill-palette-color="secondary" id="text-1"></path></svg></g></svg></g></svg></g></svg></g><g transform="matrix(1,0,0,1,413.01820592579526,0)"><svg viewBox="0 0 156.88844551110375 156.88844551110375" height="156.88844551110375" width="156.88844551110375"><g data-palette-color="#49beb7"><rect width="42.88284177303503" height="156.88844551110375" fill="#000000" stroke="transparent" data-fill-palette-color="accent" x="0" fill-opacity="1"></rect><rect width="42.88284177303503" height="156.88844551110375" fill="#000000" stroke="transparent" data-fill-palette-color="accent" x="52.29614850370126" fill-opacity="0.75"></rect><rect width="42.88284177303503" height="156.88844551110375" fill="#000000" stroke="transparent" data-fill-palette-color="accent" x="104.59229700740252" fill-opacity="0.5"></rect></g></svg></g></svg></g></svg><rect width="395.52" height="108.88189813559724" fill="none" stroke="none" visibility="hidden"></rect></g></svg></g></svg>